<?xml version="1.0" standalone="no"?>
<!DOCTYPE svg PUBLIC "-//W3C//DTD SVG 20010904//EN"
 "http://www.w3.org/TR/2001/REC-SVG-20010904/DTD/svg10.dtd">
<svg version="1.0" xmlns="http://www.w3.org/2000/svg"
 width="200pt" height="56pt" viewBox="0 0 198.000000 198.000000"
 preserveAspectRatio="xMidYMid meet">
<metadata>
Created by potrace 1.16, written by Peter Selinger 2001-2019
</metadata>
<g transform="translate(0.000000,198.000000) scale(0.100000,-0.100000)"
fill="#000000" stroke="none">
<path d="M338 983 c8 -3 12 -29 12 -79 0 -67 2 -74 20 -74 18 0 20 7 20 76 0
76 9 90 34 51 8 -12 5 -21 -8 -36 -17 -19 -17 -21 -3 -21 20 0 24 -56 5 -63
-7 -3 -4 -6 8 -6 43 -2 60 50 22 70 -19 10 -19 12 -5 21 26 14 21 47 -9 58
-25 10 -120 13 -96 3z"/>
<path d="M508 983 c8 -3 12 -29 12 -78 0 -64 2 -73 20 -78 17 -4 20 0 20 34 0
27 4 39 14 39 8 0 17 -6 19 -12 3 -7 5 3 5 22 0 19 -2 27 -5 18 -8 -33 -33
-20 -33 17 0 29 4 35 20 35 12 0 24 -10 30 -22 8 -22 9 -22 9 5 1 27 0 27 -61
26 -35 0 -57 -3 -50 -6z"/>
<path d="M678 910 c2 -44 7 -80 10 -80 4 0 6 20 4 44 -7 81 0 84 46 18 24 -34
47 -62 52 -62 12 0 19 30 22 103 3 55 2 57 -21 57 -23 0 -23 -1 -7 -13 13 -10
17 -24 14 -57 l-3 -44 -43 57 c-23 31 -50 57 -60 57 -15 0 -17 -10 -14 -80z"/>
<path d="M868 983 c8 -3 12 -32 12 -94 l0 -89 -25 6 c-15 4 -25 2 -25 -5 0 -6
13 -11 30 -11 39 0 52 26 59 123 l6 77 -35 -1 c-19 0 -29 -3 -22 -6z"/>
<path d="M1016 975 c-3 -9 0 -29 8 -43 8 -15 17 -44 21 -64 6 -30 12 -37 36
-40 21 -3 26 -1 18 8 -5 6 -20 42 -32 80 -24 69 -40 88 -51 59z"/>
<path d="M1148 984 c8 -4 12 -30 12 -80 0 -41 3 -74 8 -74 4 0 6 28 5 62 l-3
63 24 -60 c13 -32 28 -61 34 -63 5 -1 17 18 26 44 19 57 20 71 1 29 l-13 -30
-16 40 c-26 64 -31 70 -62 72 -16 1 -23 0 -16 -3z"/>
<path d="M1280 971 c-13 -25 -13 -34 1 -25 8 4 10 -12 7 -54 -3 -54 -1 -61 17
-64 19 -4 20 0 17 70 -3 54 0 77 10 83 9 6 5 9 -14 9 -17 0 -31 -7 -38 -19z"/>
<path d="M1390 975 c7 -9 10 -38 8 -80 -3 -57 -1 -65 15 -65 15 0 17 10 17 74
0 50 4 76 13 79 6 3 -5 6 -27 6 -33 1 -37 -1 -26 -14z"/>
<path d="M1509 963 c12 -16 38 -52 59 -80 51 -73 62 -69 62 21 0 50 4 76 13
79 6 3 -4 5 -23 5 -19 0 -27 -2 -17 -5 13 -3 17 -15 17 -54 0 -27 -2 -49 -3
-49 -2 0 -21 25 -42 55 -28 42 -43 55 -62 55 l-25 0 21 -27z"/>
<path d="M986 886 c-3 -13 -9 -31 -12 -40 -3 -9 -1 -16 5 -16 6 0 10 3 9 8 -1
4 2 20 7 35 4 15 5 30 2 33 -2 3 -7 -6 -11 -20z"/>
<path d="M1502 879 c1 -20 -2 -41 -6 -47 -5 -8 -2 -10 8 -6 17 7 20 37 6 69
-7 16 -8 12 -8 -16z"/>
<path d="M615 857 c-4 -10 -5 -21 -1 -24 10 -10 18 4 13 24 -4 17 -4 17 -12 0z"/>
</g>
</svg>
