<?xml version="1.0" standalone="no"?>
<!DOCTYPE svg PUBLIC "-//W3C//DTD SVG 20010904//EN"
 "http://www.w3.org/TR/2001/REC-SVG-20010904/DTD/svg10.dtd">
<svg version="1.0" xmlns="http://www.w3.org/2000/svg"
 width="198.000000pt" height="198.000000pt" viewBox="0 0 198.000000 198.000000"
 preserveAspectRatio="xMidYMid meet">
<metadata>
Created by potrace 1.16, written by Peter Selinger 2001-2019
</metadata>
<g transform="translate(0.000000,198.000000) scale(0.100000,-0.100000)"
fill="#000000" stroke="none">
<path d="M338 1003 c8 -3 12 -29 12 -79 0 -67 2 -74 20 -74 17 0 20 7 20 41 0
33 3 40 16 35 9 -3 18 -6 20 -6 10 0 3 -59 -8 -63 -7 -3 -4 -6 8 -6 43 -2 59
47 24 72 -18 12 -18 15 -5 20 21 9 19 44 -4 57 -11 5 -41 10 -68 9 -26 0 -42
-3 -35 -6z m87 -23 c8 -24 -1 -40 -21 -40 -9 0 -14 11 -14 30 0 35 25 42 35
10z"/>
<path d="M508 1001 c10 -6 13 -28 10 -80 -3 -68 -2 -71 20 -71 19 0 22 5 22
35 0 35 22 50 33 23 3 -7 5 3 5 22 0 19 -2 27 -5 18 -8 -33 -33 -20 -33 17 0
29 4 35 20 35 11 0 23 -7 26 -15 9 -22 23 -18 17 5 -5 17 -14 20 -67 20 -37 0
-56 -4 -48 -9z"/>
<path d="M675 930 c0 -73 2 -80 20 -80 14 0 16 3 7 9 -9 5 -12 25 -10 62 l3
54 44 -63 c24 -34 49 -61 55 -59 6 2 13 38 16 80 5 76 5 77 -19 77 -23 0 -23
-1 -7 -13 13 -9 17 -24 14 -56 l-3 -44 -40 54 c-22 30 -49 55 -60 57 -19 3
-20 -3 -20 -78z"/>
<path d="M868 1003 c8 -3 12 -32 12 -94 l0 -89 -25 6 c-15 4 -25 2 -25 -5 0
-6 13 -11 30 -11 39 0 52 26 59 123 l6 77 -35 -1 c-19 0 -29 -3 -22 -6z"/>
<path d="M1017 996 c-4 -9 0 -27 8 -42 7 -15 17 -44 20 -66 6 -31 11 -38 29
-38 l23 0 -27 77 c-27 77 -43 97 -53 69z"/>
<path d="M1148 1001 c10 -6 13 -28 10 -80 -2 -43 1 -71 7 -71 6 0 9 19 7 44
-7 78 2 84 26 19 13 -35 27 -63 31 -63 13 0 22 42 12 54 -5 6 -16 32 -26 59
-16 42 -21 47 -49 47 -21 0 -27 -3 -18 -9z"/>
<path d="M1280 991 c-13 -25 -13 -34 1 -25 8 4 10 -12 7 -55 -3 -56 -1 -61 17
-61 18 0 20 5 17 71 -3 52 0 74 10 80 9 6 5 9 -14 9 -17 0 -31 -7 -38 -19z"/>
<path d="M1390 995 c7 -9 10 -38 8 -80 -3 -59 -1 -65 17 -65 18 0 20 5 17 71
-3 52 0 74 10 80 8 6 -1 9 -26 9 -33 0 -37 -2 -26 -15z"/>
<path d="M1501 993 c8 -10 19 -23 24 -29 6 -6 26 -34 45 -62 49 -72 60 -68 60
22 0 50 4 76 13 79 6 3 -4 5 -23 5 -19 0 -27 -2 -17 -5 13 -3 17 -15 17 -54 0
-27 -2 -49 -3 -49 -2 0 -21 25 -42 55 -28 42 -43 55 -62 55 -23 0 -24 -2 -12
-17z"/>
<path d="M1256 935 c-9 -26 -7 -32 5 -12 6 10 9 21 6 23 -2 3 -7 -2 -11 -11z"/>
<path d="M1499 898 c-3 -40 -1 -48 13 -48 16 0 15 13 -6 85 -2 6 -5 -11 -7
-37z"/>
<path d="M990 918 c0 -7 -7 -25 -14 -40 -12 -22 -12 -28 -2 -28 7 0 13 6 13
13 0 6 4 24 8 40 4 15 4 27 1 27 -3 0 -6 -6 -6 -12z"/>
<path d="M607 870 c-3 -13 0 -20 9 -20 8 0 14 9 14 20 0 11 -4 20 -9 20 -5 0
-11 -9 -14 -20z"/>
</g>
</svg>
